<svg xmlns="http://www.w3.org/2000/svg" width="21" height="16">
  <path fill="#FFF" fill-rule="evenodd" d="M19.688 13.333c0 .136-.026.264-.063.386L13.78 7.33l5.908-4.666V13.33zM2.334 14.63l5.922-6.41L10.5 9.943l2.147-1.733 6.02 6.42c-.094.023-16.24.023-16.333 0zm-1.022-1.297V2.667L7.22 7.333 1.374 13.72c-.037-.123-.063-.25-.063-.387zm17.72-12L10.5 8 1.97 1.333h17.06zM18.374 0H2.624C1.174 0 0 1.194 0 2.667v10.666C0 14.806 1.175 16 2.625 16h15.75C19.825 16 21 14.806 21 13.333V2.667C21 1.194 19.825 0 18.375 0z"/>
</svg>
