<svg xmlns="http://www.w3.org/2000/svg" width="30" height="30"><g fill="#373739" fill-rule="evenodd"><path d="M7.206 3.563c-.972 0-1.887.38-2.576 1.067-.688.69-1.067 1.603-1.067 2.576 0 .973.38 1.888 1.067 2.576l5.095 5.096-5.095 5.096c-.688.69-1.067 1.603-1.067 2.576 0 .973.38 1.888 1.067 2.576.69.688 1.604 1.067 2.576 1.067.974 0 1.89-.38 2.577-1.066l10.248-10.25-10.245-10.247c-.688-.688-1.603-1.067-2.577-1.067m0 26.193c-1.924 0-3.734-.75-5.095-2.11-1.364-1.36-2.114-3.17-2.114-5.096 0-1.925.75-3.735 2.11-5.096l2.577-2.576-2.576-2.576c-1.361-1.36-2.111-3.17-2.111-5.096 0-1.924.75-3.734 2.11-5.096 1.363-1.36 3.173-2.11 5.097-2.11 1.925 0 3.736.75 5.096 2.11l12.767 12.77-12.768 12.766c-1.36 1.36-3.17 2.11-5.096 2.11M22.55 29.756c-1.925 0-3.735-.75-5.095-2.11l-2.578-2.578 2.52-2.52 2.577 2.578c.688.688 1.603 1.067 2.577 1.067s1.89-.38 2.578-1.066c.688-.69 1.068-1.604 1.068-2.577 0-.973-.38-1.888-1.068-2.575l-5.094-5.097 5.094-5.095c.688-.69 1.068-1.604 1.068-2.577 0-.973-.38-1.887-1.068-2.576-.688-.688-1.603-1.067-2.575-1.067-.973 0-1.888.38-2.576 1.067l-2.578 2.574-2.52-2.52 2.575-2.573c1.36-1.361 3.17-2.111 5.095-2.111 1.925 0 3.735.75 5.095 2.11 1.362 1.362 2.112 3.172 2.112 5.096 0 1.925-.75 3.735-2.112 5.096l-2.575 2.576 2.575 2.577c1.362 1.36 2.112 3.17 2.112 5.095 0 1.925-.75 3.735-2.112 5.096-1.36 1.36-3.17 2.11-5.094 2.11"/></g></svg>