<svg xmlns="http://www.w3.org/2000/svg" width="96" height="25" xmlns:xlink="http://www.w3.org/1999/xlink">
  <defs>
    <path id="a" d="M0 24.807h95.707V.21H0v24.597z"/>
  </defs>
  <g fill="none" fill-rule="evenodd">
    <path fill="#FFF" d="M40.857 6.17c-1.604 0-3.05.552-4.258 1.61V.21h-3.44v24.597h3.44v-10.94c0-2.35 1.91-4.26 4.252-4.26 2.35 0 4.26 1.91 4.26 4.26v10.94h3.435l.004-10.94c0-4.244-3.452-7.698-7.7-7.698M24.58 7.55c-1.296-.907-2.82-1.387-4.407-1.387-1.61 0-3.057.552-4.266 1.615l-.42-1.592h-3.01v18.56l3.436.053V14.05c0-2.33 1.735-4.275 3.95-4.43 1.01-.072 1.974.202 2.78.777l1.938-2.84zm59.962 0c-1.298-.9-2.822-1.38-4.408-1.38-1.61 0-3.057.553-4.267 1.616l-.42-1.593H72.44v18.56l3.434.054V14.05c0-2.33 1.734-4.275 3.95-4.43 1.01-.072 1.974.202 2.78.777l1.938-2.84z"/>
    <mask id="b" fill="#fff">
      <use xlink:href="#a"/>
    </mask>
    <path fill="#FFF" d="M26.37 24.807h3.435V6.17H26.37v18.637zm39.244-9.332c0 3.205-2.506 5.814-5.586 5.814-3.08 0-5.586-2.61-5.586-5.82s2.506-5.82 5.586-5.82c3.08 0 5.586 2.61 5.586 5.816zM65.9 6.17l-.286 2.248c-1.48-1.45-3.38-2.207-5.586-2.207-4.942 0-8.963 4.16-8.963 9.27s4.02 9.266 8.963 9.266c2.205 0 4.105-.757 5.586-2.207l.287 2.25h3.09V6.192L65.9 6.17zm28.098 15.22c-1.452 0-2.634-1.182-2.634-2.634v-9.17h3.23V6.17h-3.23V.253h-3.39V6.17H85.37v3.416h2.602v9.17c0 3.32 2.703 6.023 6.025 6.023h1.71V21.4s-1.375-.01-1.71-.01m-85.367 0c-1.453 0-2.635-1.182-2.635-2.634v-9.17h3.23V6.17h-3.23V.253H2.603V6.17H0v3.416h2.603v9.17c0 3.32 2.704 6.023 6.026 6.023h1.7V21.4s-1.374-.01-1.71-.01M28.07.21c-1.143 0-2.073.93-2.073 2.073 0 1.142.93 2.072 2.073 2.072 1.142 0 2.073-.93 2.073-2.072 0-1.143-.93-2.072-2.073-2.072" mask="url(#b)"/>
  </g>
</svg>
